<svg xmlns="http://www.w3.org/2000/svg" viewBox="0 0 686 141.52"><defs><style>.cls-1{fill:none;stroke:#f56666;stroke-linecap:round;stroke-linejoin:round;stroke-width:15px;}</style></defs><g id="Layer_2" data-name="Layer 2"><g id="Layer_1-2" data-name="Layer 1"><line class="cls-1" x1="7.5" y1="7.5" x2="7.5" y2="132.5"/><circle class="cls-1" cx="49.5" cy="90.5" r="42"/><line class="cls-1" x1="120.5" y1="50.5" x2="120.5" y2="132.5"/><path class="cls-1" d="M198.05,68.13A42,42,0,0,0,120.5,90.5"/><line class="cls-1" x1="295.51" y1="132.5" x2="295.51" y2="50.02"/><circle class="cls-1" cx="253.24" cy="92.02" r="42"/><line class="cls-1" x1="320.31" y1="50.02" x2="320.31" y2="132.5"/><line class="cls-1" x1="380.5" y1="63.5" x2="380.5" y2="132.5"/><line class="cls-1" x1="440.25" y1="74.5" x2="440.25" y2="132.5"/><path class="cls-1" d="M320.5,76.5s3-26,29-26,31,26,31,26"/><path class="cls-1" d="M380.55,76.31s3-26,29-26,31,26,31,26"/><line class="cls-1" x1="465.85" y1="7.99" x2="465.85" y2="132.5"/><circle class="cls-1" cx="507.85" cy="90.99" r="42"/><line class="cls-1" x1="572.5" y1="8" x2="572.5" y2="132.5"/><path class="cls-1" d="M678.5,90.5a42,42,0,1,0-10.36,27.63"/><line class="cls-1" x1="595.15" y1="90.86" x2="678.15" y2="90.86"/></g></g></svg>