<svg width="104" height="22" viewBox="0 0 104 22" fill="none" xmlns="http://www.w3.org/2000/svg">
<path d="M17 12C17.5 9.5 19.8 7 23 7C26.2 7 28.5 9.5 29 12" stroke="#232323" stroke-width="2"/>
<path d="M102.674 15.0341C101.757 17.4132 99.0669 19.4872 95.9132 18.9447C92.7595 18.4023 91.069 15.5486 91 13" stroke="#232323" stroke-width="2"/>
<path d="M49 11C49.375 9 51.1 7 53.5 7C55.9 7 57.625 9 58 11" stroke="#232323" stroke-width="2"/>
<path d="M58 11C58.375 9 60.1 7 62.5 7C64.9 7 67 8.5 67 11" stroke="#232323" stroke-width="2"/>
<circle cx="7" cy="13" r="6" stroke="#232323" stroke-width="2"/>
<mask id="path-6-inside-1" fill="white">
<path d="M104 13C104 12.0807 103.819 11.1705 103.467 10.3212C103.115 9.47194 102.6 8.70026 101.95 8.05025C101.3 7.40024 100.528 6.88463 99.6788 6.53284C98.8295 6.18106 97.9193 6 97 6C96.0807 6 95.1705 6.18106 94.3212 6.53284C93.4719 6.88463 92.7003 7.40024 92.0503 8.05025C91.4002 8.70026 90.8846 9.47194 90.5328 10.3212C90.1811 11.1705 90 12.0807 90 13L97 13H104Z"/>
</mask>
<path d="M104 13C104 12.0807 103.819 11.1705 103.467 10.3212C103.115 9.47194 102.6 8.70026 101.95 8.05025C101.3 7.40024 100.528 6.88463 99.6788 6.53284C98.8295 6.18106 97.9193 6 97 6C96.0807 6 95.1705 6.18106 94.3212 6.53284C93.4719 6.88463 92.7003 7.40024 92.0503 8.05025C91.4002 8.70026 90.8846 9.47194 90.5328 10.3212C90.1811 11.1705 90 12.0807 90 13L97 13H104Z" stroke="#232323" stroke-width="4" mask="url(#path-6-inside-1)"/>
<path d="M45 13C45 16.3137 42.3137 19 39 19C35.6863 19 33 16.3137 33 13C33 9.68629 35.6863 7 39 7C42.3137 7 45 9.68629 45 13Z" stroke="#232323" stroke-width="2"/>
<line x1="1" y1="-4.37114e-08" x2="1" y2="20" stroke="#232323" stroke-width="2"/>
<circle cx="77" cy="13" r="6" stroke="#232323" stroke-width="2"/>
<line x1="71" y1="-4.37114e-08" x2="71" y2="20" stroke="#232323" stroke-width="2"/>
<line x1="87" y1="-4.37114e-08" x2="87" y2="20" stroke="#232323" stroke-width="2"/>
<line x1="17" y1="6" x2="17" y2="20" stroke="#232323" stroke-width="2"/>
<line x1="45" y1="6" x2="45" y2="20" stroke="#232323" stroke-width="2"/>
<line x1="49" y1="6" x2="49" y2="20" stroke="#232323" stroke-width="2"/>
<line x1="58" y1="10" x2="58" y2="20" stroke="#232323" stroke-width="2"/>
<line x1="67" y1="10" x2="67" y2="20" stroke="#232323" stroke-width="2"/>
</svg>
