<svg width="34" height="36" viewBox="0 0 34 36" fill="none" xmlns="http://www.w3.org/2000/svg">
<path d="M6.46338 34.6193L16.7062 13.533" stroke="#232323" stroke-width="2" stroke-linecap="square" stroke-linejoin="round"/>
<path d="M12 21L7 14" stroke="#232323" stroke-width="2" stroke-linecap="square" stroke-linejoin="round"/>
<path d="M10.7352 26.9392L23.735 25.8259" stroke="#232323" stroke-width="2" stroke-linecap="square" stroke-linejoin="round"/>
<path d="M19 25L22 20" stroke="#232323" stroke-width="2" stroke-linecap="square" stroke-linejoin="round"/>
<path d="M12.498 9.32812L16.5282 13.3289" stroke="#232323" stroke-width="2" stroke-linecap="square" stroke-linejoin="round"/>
<path d="M22 7L17 13" stroke="#232323" stroke-width="2" stroke-linecap="square" stroke-linejoin="round"/>
<path d="M6.22346 10.5556C7.05375 10.5556 7.72683 9.88248 7.72683 9.0522C7.72683 8.22191 7.05375 7.54883 6.22346 7.54883C5.39317 7.54883 4.72009 8.22191 4.72009 9.0522C4.72009 9.88248 5.39317 10.5556 6.22346 10.5556Z" fill="#F5C782" stroke="#F5C782" stroke-width="2" stroke-linecap="round" stroke-linejoin="round"/>
<path d="M2.50337 8.75673C3.33365 8.75673 4.00673 8.08365 4.00673 7.25337C4.00673 6.42308 3.33365 5.75 2.50337 5.75C1.67308 5.75 1 6.42308 1 7.25337C1 8.08365 1.67308 8.75673 2.50337 8.75673Z" fill="#F5C782" stroke="#F5C782" stroke-width="2" stroke-linecap="round" stroke-linejoin="round"/>
<path d="M2.50337 12.9567C3.33365 12.9567 4.00673 12.2836 4.00673 11.4533C4.00673 10.623 3.33365 9.94995 2.50337 9.94995C1.67308 9.94995 1 10.623 1 11.4533C1 12.2836 1.67308 12.9567 2.50337 12.9567Z" fill="#F5C782" stroke="#F5C782" stroke-width="2" stroke-linecap="round" stroke-linejoin="round"/>
<path d="M28.5552 4.00673C29.3855 4.00673 30.0586 3.33365 30.0586 2.50337C30.0586 1.67308 29.3855 1 28.5552 1C27.7249 1 27.0518 1.67308 27.0518 2.50337C27.0518 3.33365 27.7249 4.00673 28.5552 4.00673Z" fill="#F5C782" stroke="#F5C782" stroke-width="2" stroke-linecap="round" stroke-linejoin="round"/>
<path d="M24.4663 4.60415C25.2965 4.60415 25.9696 3.93107 25.9696 3.10078C25.9696 2.27049 25.2965 1.59741 24.4663 1.59741C23.636 1.59741 22.9629 2.27049 22.9629 3.10078C22.9629 3.93107 23.636 4.60415 24.4663 4.60415Z" fill="#F5C782" stroke="#F5C782" stroke-width="2" stroke-linecap="round" stroke-linejoin="round"/>
<path d="M26.82 8.08095C27.6503 8.08095 28.3234 7.40787 28.3234 6.57759C28.3234 5.7473 27.6503 5.07422 26.82 5.07422C25.9897 5.07422 25.3167 5.7473 25.3167 6.57759C25.3167 7.40787 25.9897 8.08095 26.82 8.08095Z" fill="#F5C782" stroke="#F5C782" stroke-width="2" stroke-linecap="round" stroke-linejoin="round"/>
<path d="M31.4967 27.0143C32.3269 27.0143 33 26.3412 33 25.5109C33 24.6806 32.3269 24.0076 31.4967 24.0076C30.6664 24.0076 29.9933 24.6806 29.9933 25.5109C29.9933 26.3412 30.6664 27.0143 31.4967 27.0143Z" fill="#F5C782" stroke="#F5C782" stroke-width="2" stroke-linecap="round" stroke-linejoin="round"/>
<path d="M27.7766 25.2155C28.6068 25.2155 29.2799 24.5424 29.2799 23.7121C29.2799 22.8818 28.6068 22.2087 27.7766 22.2087C26.9463 22.2087 26.2732 22.8818 26.2732 23.7121C26.2732 24.5424 26.9463 25.2155 27.7766 25.2155Z" fill="#F5C782" stroke="#F5C782" stroke-width="2" stroke-linecap="round" stroke-linejoin="round"/>
<path d="M27.7766 29.4138C28.6068 29.4138 29.2799 28.7408 29.2799 27.9105C29.2799 27.0802 28.6068 26.4071 27.7766 26.4071C26.9463 26.4071 26.2732 27.0802 26.2732 27.9105C26.2732 28.7408 26.9463 29.4138 27.7766 29.4138Z" fill="#F5C782" stroke="#F5C782" stroke-width="2" stroke-linecap="round" stroke-linejoin="round"/>
</svg>
